# xmcd
#
# Track frame offsets:
#	150
#	2822
#	20571
#	22948
#	41532
#	44098
#	62757
#	64171
#	79073
#	82087
#	96165
#	97239
#	110702
#	113392
#	131827
#	134428
#	150568
#	153526
#	172984
#	189135
#
# Disc length: 2709 seconds
#
# Revision: 0
# Processed by: cddbd v1.4PL0 Copyright (c) Steve Scherf et al.
# Submitted via: EasyCDDAExtractor 5.0.5.1
#
DISCID=090a9314
DTITLE=Various Artist - 我的驕傲
DYEAR=2003
DGENRE=Pop
TTITLE0=容祖兒 - Geminian Theme
TTITLE1=容祖兒 - 習慣失戀
TTITLE2=容祖兒 - Joey's Clock
TTITLE3=容祖兒 - 神魂顛倒
TTITLE4=容祖兒 - Some Time
TTITLE5=容祖兒 - 心淡
TTITLE6=容祖兒 - Yummy!
TTITLE7=容祖兒 - Honey!
TTITLE8=容祖兒 - 你的擁戴
TTITLE9=容祖兒 - 我的驕傲
TTITLE10=容祖兒 - 好好聽
TTITLE11=容祖兒 - 跩跩
TTITLE12=容祖兒 - Meow's Greeting
TTITLE13=容祖兒 - 與貓共舞
TTITLE14=容祖兒 - Clubbin
TTITLE15=容祖兒 - 囉囉攣
TTITLE16=容祖兒 - Lesson One
TTITLE17=容祖兒 - 最後一課
TTITLE18=容祖兒 吳浩康 - 他都不愛我
TTITLE19=容祖兒 - 揮著翅膀的女孩
EXTD=YEAR: 2003
EXTT0=
EXTT1=
EXTT2=
EXTT3=
EXTT4=
EXTT5=
EXTT6=
EXTT7=
EXTT8=
EXTT9=
EXTT10=
EXTT11=
EXTT12=
EXTT13=
EXTT14=
EXTT15=
EXTT16=
EXTT17=
EXTT18=
EXTT19=
PLAYORDER=
